<?xml version="1.0" encoding="UTF-8" standalone="no"?>
<!-- Generator: Adobe Illustrator 18.0.0, SVG Export Plug-In . SVG Version: 6.00 Build 0)  -->

<svg
   xmlns:dc="http://purl.org/dc/elements/1.1/"
   xmlns:cc="http://creativecommons.org/ns#"
   xmlns:rdf="http://www.w3.org/1999/02/22-rdf-syntax-ns#"
   xmlns:svg="http://www.w3.org/2000/svg"
   xmlns="http://www.w3.org/2000/svg"
   xmlns:sodipodi="http://sodipodi.sourceforge.net/DTD/sodipodi-0.dtd"
   xmlns:inkscape="http://www.inkscape.org/namespaces/inkscape"
   version="1.1"
   id="Layer_1"
   x="0px"
   y="0px"
   viewBox="67.6 244 270 309"
   enable-background="new 67.6 244 270 309"
   xml:space="preserve"
   sodipodi:docname="add_user.svg"
   inkscape:version="0.92.5 (2060ec1f9f, 2020-04-08)"><metadata
   id="metadata21"><rdf:RDF><cc:Work
       rdf:about=""><dc:format>image/svg+xml</dc:format><dc:type
         rdf:resource="http://purl.org/dc/dcmitype/StillImage" /></cc:Work></rdf:RDF></metadata><defs
   id="defs19" /><sodipodi:namedview
   pagecolor="#ffffff"
   bordercolor="#666666"
   borderopacity="1"
   objecttolerance="10"
   gridtolerance="10"
   guidetolerance="10"
   inkscape:pageopacity="0"
   inkscape:pageshadow="2"
   inkscape:window-width="1920"
   inkscape:window-height="1051"
   id="namedview17"
   showgrid="false"
   inkscape:zoom="2.1602227"
   inkscape:cx="83.542346"
   inkscape:cy="161.45735"
   inkscape:window-x="0"
   inkscape:window-y="-37"
   inkscape:window-maximized="1"
   inkscape:current-layer="g14" />
<g
   id="g14"
   style="stroke:#fffffc;stroke-width:30.91535837;stroke-miterlimit:4;stroke-dasharray:none;stroke-opacity:1;paint-order:stroke fill markers;fill:#000000;fill-opacity:1"
   transform="matrix(0.90269049,0,0,0.90269049,23.302152,39.704365)">
	<path
   style="opacity:1;fill:#f8ffff;fill-opacity:1;stroke:#ffffc1;stroke-width:40.22747803;stroke-linecap:round;stroke-linejoin:round;stroke-miterlimit:4;stroke-dasharray:none;stroke-opacity:0;paint-order:stroke fill markers"
   id="path833"
   sodipodi:type="arc"
   sodipodi:cx="198.81808"
   sodipodi:cy="396.06561"
   sodipodi:rx="149.41031"
   sodipodi:ry="149.1562"
   sodipodi:start="0"
   sodipodi:end="6.2410531"
   sodipodi:open="true"
   d="M 348.22839,396.06561 A 149.41031,149.1562 0 0 1 200.3918,545.21354 149.41031,149.1562 0 0 1 49.440927,399.20752 149.41031,149.1562 0 0 1 194.09763,246.98387 149.41031,149.1562 0 0 1 348.0958,389.78319" /><path
   d="m 149.87655,358.96547 c 1.05278,0.70188 2.10559,1.31601 3.24612,1.93014 7.63279,4.12346 16.58158,6.49226 25.88132,6.49226 8.77331,0 17.10797,-2.1056 24.38983,-5.7904 1.66693,-0.7896 3.24613,-1.75465 4.73759,-2.71973 15.17787,-9.65065 25.17945,-26.58317 25.17945,-45.88448 0,-30.00478 -24.30211,-54.30689 -54.30687,-54.30689 -30.00478,0.0878 -54.39462,24.38984 -54.39462,54.39462 0,19.30132 10.08932,36.23383 25.26718,45.88448 z"
   id="path2"
   style="fill:#2290d9;fill-opacity:1;stroke:#fffffc;stroke-width:40.5930941;stroke-miterlimit:4;stroke-dasharray:none;stroke-opacity:1;paint-order:stroke fill markers"
   inkscape:connector-curvature="0" />
	<g
   id="g10"
   style="fill:#2290d9;fill-opacity:1;stroke:#fffffc;stroke-width:46.26876822;stroke-miterlimit:4;stroke-dasharray:none;stroke-opacity:1;paint-order:stroke fill markers"
   transform="matrix(0.8773325,0,0,0.8773325,0.00262653,62.228176)">
		<path
   d="M 307.8,472.6 C 293.90109,406.30634 277.33359,395.35461 236.37585,401.91788 224.22113,403.86562 209.91842,407.35586 192.9,411.4 l -44.7,-32.9 c -56.1,6.7 -70.4,48.7 -70.4,99.5 0,55.5 47.91028,41.79733 111.41028,41.79733 4.55498,-0.049 8.82135,-0.22353 12.86645,-0.50114 1.99618,-0.137 3.92956,-0.47024 5.83497,-0.48358 34.63497,-0.2424 112.90594,15.34274 99.8883,-46.21261 z"
   id="path4"
   style="fill:#2290d9;fill-opacity:1;stroke:#fffffc;stroke-width:46.26876822;stroke-miterlimit:4;stroke-dasharray:none;stroke-opacity:1;paint-order:stroke fill markers"
   inkscape:connector-curvature="0"
   sodipodi:nodetypes="csccscssc" />
		<path
   d="M 307.8,472.6"
   id="path6"
   style="fill:#2290d9;fill-opacity:1;stroke:#fffffc;stroke-width:46.26876822;stroke-miterlimit:4;stroke-dasharray:none;stroke-opacity:1;paint-order:stroke fill markers"
   inkscape:connector-curvature="0" />
		
	</g>
	<polygon
   points="250,445.1 250,480.4 214.8,480.4 214.8,510.7 250,510.7 250,545.9 280.3,545.9 280.3,510.7 315.5,510.7 315.5,480.4 280.3,480.4 280.3,445.1 "
   id="polygon12"
   style="fill:#2290d9;fill-opacity:1;stroke:#fffffc;stroke-width:34.87776947;stroke-miterlimit:4;stroke-dasharray:none;stroke-opacity:1;paint-order:stroke fill markers"
   transform="matrix(1.3568552,0,0,1.3568552,-91.018741,-238.59249)" />
</g>
</svg>