<svg enable-background="new 67.6 244 270 309" version="1.1" viewBox="67.6 244 270 309" xml:space="preserve" xmlns="http://www.w3.org/2000/svg">
<g transform="matrix(.90269 0 0 .90269 23.302 39.704)" stroke="#fffffc" stroke-width="30.915" style="paint-order:stroke fill markers">
	<path d="m348.23 396.07a149.41 149.16 0 0 1-147.84 149.15 149.41 149.16 0 0 1-150.95-146.01 149.41 149.16 0 0 1 144.66-152.22 149.41 149.16 0 0 1 154 142.8" fill="#f8ffff" stroke-opacity="0" style="paint-order:stroke fill markers"/><g fill="#2290d9" stroke="#fffffc"><path d="m149.88 358.97c1.0528 0.70188 2.1056 1.316 3.2461 1.9301 7.6328 4.1235 16.582 6.4923 25.881 6.4923 8.7733 0 17.108-2.1056 24.39-5.7904 1.6669-0.7896 3.2461-1.7546 4.7376-2.7197 15.178-9.6506 25.179-26.583 25.179-45.884 0-30.005-24.302-54.307-54.307-54.307-30.005 0.0878-54.395 24.39-54.395 54.395 0 19.301 10.089 36.234 25.267 45.884z" stroke-width="40.593" style="paint-order:stroke fill markers"/>
	<g transform="matrix(.87733 0 0 .87733 .0026265 62.228)" stroke-width="46.269" style="paint-order:stroke fill markers">
		<path d="m307.8 472.6c-13.899-66.294-30.466-77.245-71.424-70.682-12.155 1.9477-26.457 5.438-43.476 9.4821l-44.7-32.9c-56.1 6.7-70.4 48.7-70.4 99.5 0 55.5 47.91 41.797 111.41 41.797 4.555-0.049 8.8214-0.22353 12.866-0.50114 1.9962-0.137 3.9296-0.47024 5.835-0.48358 34.635-0.2424 112.91 15.343 99.888-46.213z" style="paint-order:stroke fill markers"/>
		<path d="m307.8 472.6" style="paint-order:stroke fill markers"/>
		
	</g>
	<polygon transform="matrix(1.3569 0 0 1.3569 -91.019 -238.59)" points="250 445.1 250 480.4 214.8 480.4 214.8 510.7 250 510.7 250 545.9 280.3 545.9 280.3 510.7 315.5 510.7 315.5 480.4 280.3 480.4 280.3 445.1" stroke-width="34.878" style="paint-order:stroke fill markers"/>
</g></g>
</svg>
