<svg viewBox="0 0 309 270" height="270" width="309" xmlns="http://www.w3.org/2000/svg" xml:space="preserve" style="fill-rule:evenodd;clip-rule:evenodd;stroke-linejoin:round;stroke-miterlimit:2"><path d="M52.267 12.233V9.612h-2.621V7.864h2.621V5.243h1.748v2.621h2.621v1.748h-2.621v2.621h-1.748Zm-7.864-1.748c-.961 0-1.784-.342-2.469-1.026a3.367 3.367 0 0 1-1.026-2.469c0-.961.342-1.784 1.026-2.468.685-.684 1.508-1.027 2.469-1.027.961 0 1.784.343 2.468 1.027a3.362 3.362 0 0 1 1.027 2.468c0 .961-.342 1.785-1.027 2.469a3.365 3.365 0 0 1-2.468 1.026Zm-6.99 6.991v-2.447c0-.495.127-.95.382-1.366a2.55 2.55 0 0 1 1.016-.949 12.978 12.978 0 0 1 2.752-1.017 12.074 12.074 0 0 1 5.68 0c.932.227 1.85.565 2.752 1.017.422.218.761.535 1.016.949.255.416.382.871.382 1.366v2.447h-13.98Z" style="fill:#2290d9;fill-rule:nonzero" transform="translate(-387.58 13.453) scale(11.5804)"/></svg>