<?xml version="1.0" encoding="UTF-8" standalone="no"?>
<svg xmlns:rdf="http://www.w3.org/1999/02/22-rdf-syntax-ns#" xmlns="http://www.w3.org/2000/svg" height="16" width="16" version="1.1" xmlns:cc="http://creativecommons.org/ns#" xmlns:dc="http://purl.org/dc/elements/1.1/">
  <path d="M 3.7033898,2.5508475 6,5 H 4 v 6.349874 C 3.9978062,11.766594 4.1753909,11.975633 4.6261562,12 H 8.0338983 C 9.1311838,11.997895 9.2153386,13.988112 8,14 H 4.0269132 C 2.8202842,13.979992 2.0239697,13.221832 2,12.021026 V 5 H 0 L 2.3898306,2.5932203 C 2.7981432,2.198722 3.2806083,2.1519552 3.7033898,2.5508475 Z M 7.9819172,2 H 12.00883 C 13.27311,1.9987847 13.952061,2.5865479 14,3.9432301 V 11 h 2 l -2.254237,2.254237 c -0.422373,0.454494 -0.950419,0.456361 -1.415255,0.0085 L 10,11 h 2 V 4.470564 C 11.997141,4.0566741 11.865895,3.9908781 11.457527,4 H 8.0298567 C 6.7617978,3.994446 6.7584574,2.0239697 7.9819172,2 Z"/>
</svg>
