<svg viewBox="0 0 68 68" height="68" width="68" xmlns="http://www.w3.org/2000/svg" xml:space="preserve" style="fill-rule:evenodd;clip-rule:evenodd;stroke-linejoin:round;stroke-miterlimit:2"><path d="M15.5 11a1.45 1.45 0 0 0 1.063-.437A1.45 1.45 0 0 0 17 9.5c0-.417-.146-.771-.437-1.062A1.447 1.447 0 0 0 15.5 8c-.417 0-.771.146-1.062.438A1.443 1.443 0 0 0 14 9.5c0 .417.146.771.438 1.063.291.291.645.437 1.062.437Zm-7 0a1.45 1.45 0 0 0 1.063-.437A1.45 1.45 0 0 0 10 9.5c0-.417-.146-.771-.437-1.062A1.447 1.447 0 0 0 8.5 8c-.417 0-.771.146-1.062.438A1.443 1.443 0 0 0 7 9.5c0 .417.146.771.438 1.063.291.291.645.437 1.062.437Zm3.5 6.5a5.301 5.301 0 0 0 3.088-.962A5.495 5.495 0 0 0 17.1 14H6.9a5.49 5.49 0 0 0 2.013 2.538A5.298 5.298 0 0 0 12 17.5Zm0 4.5a9.723 9.723 0 0 1-3.9-.788 10.077 10.077 0 0 1-3.175-2.137c-.9-.9-1.612-1.958-2.137-3.175A9.74 9.74 0 0 1 2 12a9.74 9.74 0 0 1 .788-3.9 10.093 10.093 0 0 1 2.137-3.175c.9-.9 1.958-1.612 3.175-2.138A9.74 9.74 0 0 1 12 2a9.74 9.74 0 0 1 3.9.787 10.113 10.113 0 0 1 3.175 2.138c.9.9 1.613 1.958 2.138 3.175A9.74 9.74 0 0 1 22 12a9.74 9.74 0 0 1-.787 3.9 10.096 10.096 0 0 1-2.138 3.175c-.9.9-1.958 1.613-3.175 2.137A9.723 9.723 0 0 1 12 22Zm0-2c2.233 0 4.125-.775 5.675-2.325C19.225 16.125 20 14.233 20 12c0-2.233-.775-4.125-2.325-5.675C16.125 4.775 14.233 4 12 4c-2.233 0-4.125.775-5.675 2.325C4.775 7.875 4 9.767 4 12c0 2.233.775 4.125 2.325 5.675C7.875 19.225 9.767 20 12 20Z" style="fill-rule:nonzero" transform="matrix(3.4 0 0 3.4 -6.8 -6.8)"/></svg>